<svg width="1280" height="720" viewBox="0 0 1280 720" fill="none" xmlns="http://www.w3.org/2000/svg">
  <rect width="1280" height="720" fill="#14161C"/>
  <rect x="38" y="38" width="1204" height="644" rx="34" fill="#1E222B" stroke="#3E4658" stroke-width="4"/>
  <circle cx="366" cy="360" r="168" fill="#C98C4D"/>
  <circle cx="305" cy="298" r="21" fill="#6B3A1A"/>
  <circle cx="402" cy="271" r="18" fill="#6B3A1A"/>
  <circle cx="450" cy="349" r="23" fill="#6B3A1A"/>
  <circle cx="290" cy="410" r="20" fill="#6B3A1A"/>
  <circle cx="390" cy="437" r="17" fill="#6B3A1A"/>
  <path d="M477 247C515 278 541 325 541 378C541 471 466 546 373 546C330 546 291 530 260 503L477 247Z" fill="#E2A763" fill-opacity="0.82"/>
  <rect x="620" y="200" width="520" height="88" rx="20" fill="#252B37"/>
  <text x="655" y="257" fill="#F8F3EA" font-family="Arial, Helvetica, sans-serif" font-size="54" font-weight="700">COOKIE CLICKER</text>
  <rect x="620" y="322" width="376" height="58" rx="16" fill="#2E3644"/>
  <text x="652" y="361" fill="#88E0F9" font-family="Arial, Helvetica, sans-serif" font-size="28" font-weight="700">OFFICIAL DASHNET LAUNCH</text>
  <text x="622" y="454" fill="#D6D8DE" font-family="Arial, Helvetica, sans-serif" font-size="34" font-weight="700">Opens the real game in a new tab</text>
  <text x="622" y="506" fill="#A8B0BF" font-family="Arial, Helvetica, sans-serif" font-size="26">Added as an official launcher instead of a copied mirror.</text>
</svg>
